# xmcd
#
# Track frame offsets:
#	150
#	17937
#	34265
#	57603
#	80857
#	99255
#	118948
#	159061
#	180696
#	193441
#
# Disc length: 2860 seconds
#
# Revision: 0
# Processed by: cddbd v1.5.1PL0 Copyright (c) Steve Scherf et al.
# Submitted via: dBpowerAMP V4.0
#
DISCID=8b0b2a0a
DTITLE=Bobby Murray - Waiting for Mr Goodfingers
DYEAR=1999
DGENRE=Blues
TTITLE0=Still Called the Blues
TTITLE1=Can I Walk You To Your Car?
TTITLE2=Strollin'
TTITLE3=Cold and Hungry
TTITLE4=Double Clutch
TTITLE5=Rock House
TTITLE6=Conversation
TTITLE7=Where I Went Wrong
TTITLE8=Walkin' With The Blues
TTITLE9=Time To Say Goodbye
EXTD=
EXTT0=
EXTT1=
EXTT2=
EXTT3=
EXTT4=
EXTT5=
EXTT6=
EXTT7=
EXTT8=
EXTT9=
PLAYORDER=
